<svg xmlns="http://www.w3.org/2000/svg" width="120" height="120" viewBox="0 0 120 120"><g fill="#F0F0F0"><path d="M48.46 32.14c-.09-.315-.18-.315-.27 0l-2.803 11.706c-.045.316.136.542.407.542H50.9c.317 0 .498-.27.407-.542L48.46 32.14zM47.61 67.718c-.226-.227-.634-.408-.95-.408h-2.65c-.27 0-.724.182-.906.408l-.997.952c-.18.227-.362.634-.362.95v20.303c0 .272.18.726.362.907l.997.997c.182.18.635.362.907.362h2.65c.316 0 .724-.183.95-.363l.952-.997c.227-.182.408-.635.408-.907V69.62c0-.316-.18-.724-.408-.95l-.95-.952z"/><path d="M0 120h120V0H0v120zm81.284-97.194c0-1.873.227-2.1.542-2.1H94.57c.272 0 .543.227.543.544v3.705c0 .317-.27.543-.543.543h-7.954c-.315 0-.542.226-.542.542v7.973c0 .317.227.543.542.543h6.012c.27 0 .542.27.542.542v3.705c0 .317-.27.543-.542.543h-6.012c-.315 0-.542.27-.542.542v9.833c0 .317.227.543.542.543h7.954c.272 0 .543.226.543.542v3.706c0 .317-.27.543-.543.543H81.826c-.315 0-.542-.093-.542-.51V22.806zM30.92 96.448c0 .317-.273.545-.545.545H26.66c-.317 0-.544-.228-.544-.545v-17.61c0-.272-.09-.317-.136 0l-3.068 9.652c-.09.272-.363.498-.68.498h-1.295c-.316 0-.588-.226-.68-.498l-2.932-9.38c-.09-.317-.136-.272-.136 0v17.338c0 .317-.228.545-.545.545H12.93c-.273 0-.545-.228-.545-.545V63.186c0-.27.272-.543.544-.543h3.806c.317 0 .634.227.725.543l3.99 15.222c.09.317.226.317.316 0l4.078-15.222c.09-.316.408-.543.68-.543h3.852c.272 0 .544.272.544.543v33.262zm3.956-41.937c0 .317-.226.543-.542.543H21.42c-.317 0-.543-.226-.543-.542V21.296c0-.316.226-.542.542-.542h3.705c.27 0 .542.226.542.542V49.72c0 .317.226.543.542.543h8.124c.316 0 .542.27.542.542v3.706zM53.73 91.918c0 .27-.183.725-.364.906L49.56 96.63c-.182.182-.59.363-.907.363h-6.636c-.272 0-.725-.182-.906-.363l-3.806-3.807c-.18-.182-.363-.635-.363-.906v-24.29c0-.317.183-.726.364-.95l3.807-3.762c.182-.228.635-.363.907-.363h6.636c.317 0 .725.136.907.363l3.806 3.76c.18.227.363.635.363.953v24.29zm.153-37.406l-1.13-4.744c-.045-.27-.36-.543-.678-.497h-7.41c-.317 0-.634.225-.68.496l-1.13 4.745c-.044.317-.36.543-.677.543h-3.886c-.316 0-.497-.226-.452-.542l7.954-33.35c.09-.272.36-.498.677-.498h3.662c.27-.045.587.226.633.497L58.9 54.51c.09.317-.09.543-.407.543H54.56c-.314 0-.585-.226-.677-.542M73.33 66.496c0 .27-.272.543-.544.543h-4.44c-.318 0-.544.227-.544.544v28.866c0 .317-.228.545-.544.545h-3.444c-.317 0-.544-.228-.544-.545V67.582c0-.317-.272-.544-.544-.544h-4.44c-.318 0-.545-.272-.545-.543v-3.49c0-.272.228-.498.545-.498h14.5c.273 0 .544.226.544.498v3.49zm1.62-41.856c0 .27-.272.54-.543.54h-4.43c-.315 0-.54.227-.54.544V54.51c0 .317-.227.543-.544.543H65.46c-.317 0-.542-.226-.542-.542V25.725c0-.317-.272-.543-.544-.543h-4.428c-.317 0-.543-.27-.543-.54v-3.48c0-.272.226-.498.543-.498h14.46c.272 0 .543.226.543.497v3.48zm8.51 71.827c0 .29-.234.526-.524.526h-3.753c-.29 0-.525-.235-.525-.526V63.123c0-.29.235-.526.525-.526h3.753c.29 0 .525.236.525.526v33.344zm18.3-.02c-.045.318-.317.546-.636.546H97.41c-.318 0-.59-.228-.636-.545L90.25 63.005c-.047-.272.135-.498.452-.498h3.807c.27 0 .588.226.634.498l3.988 20.665c.09.27.18.27.226 0l3.988-20.665c.045-.272.363-.498.634-.498h3.807c.317 0 .5.226.453.498l-6.48 33.443z"/></g></svg>